<svg width="28" height="28" viewBox="0 0 28 28" fill="none" xmlns="http://www.w3.org/2000/svg">
<path d="M9.5 2V26M2 5C2 4.20435 2.31607 3.44129 2.87868 2.87868C3.44129 2.31607 4.20435 2 5 2H23C23.7956 2 24.5587 2.31607 25.1213 2.87868C25.6839 3.44129 26 4.20435 26 5V23C26 23.7956 25.6839 24.5587 25.1213 25.1213C24.5587 25.6839 23.7956 26 23 26H5C4.20435 26 3.44129 25.6839 2.87868 25.1213C2.31607 24.5587 2 23.7956 2 23V5Z" stroke="#F9F8FD" stroke-width="3" stroke-linecap="round" stroke-linejoin="round"/>
<path d="M18.5 11L15.5 14L18.5 17" stroke="#F9F8FD" stroke-width="3" stroke-linecap="round" stroke-linejoin="round"/>
</svg>
