<svg width="24" height="24" viewBox="0 0 24 24" fill="none" xmlns="http://www.w3.org/2000/svg">
<path fill-rule="evenodd" clip-rule="evenodd" d="M11.1515 0.351471C11.6201 -0.117157 12.3799 -0.117157 12.8485 0.351471L23.6485 11.1514C23.9917 11.4946 24.0944 12.0108 23.9086 12.4592C23.7229 12.9076 23.2853 13.2 22.8 13.2H21.6V20.3999C21.6 21.3547 21.2207 22.2704 20.5456 22.9455C19.8704 23.6206 18.9548 23.9999 18 23.9999H6.00002C5.04524 23.9999 4.12957 23.6206 3.45444 22.9455C2.77931 22.2704 2.40003 21.3547 2.40003 20.3999V13.2H1.20003C0.714678 13.2 0.277116 12.9076 0.0913794 12.4592C-0.0943573 12.0108 0.00830932 11.4946 0.351506 11.1514L11.1515 0.351471ZM4.02112 10.8759C4.47614 11.0465 4.80002 11.4854 4.80002 12V20.3999C4.80002 20.7182 4.92645 21.0234 5.15149 21.2485C5.37654 21.4735 5.68176 21.5999 6.00002 21.5999H18C18.3182 21.5999 18.6235 21.4735 18.8485 21.2485C19.0736 21.0234 19.2 20.7182 19.2 20.3999V12C19.2 11.4854 19.5239 11.0465 19.9789 10.8759L12 2.89705L4.02112 10.8759ZM8.40001 12C8.40001 11.3372 8.93727 10.8 9.60001 10.8H14.4C15.0627 10.8 15.6 11.3372 15.6 12V16.7999C15.6 17.4627 15.0627 17.9999 14.4 17.9999H9.60001C8.93727 17.9999 8.40001 17.4627 8.40001 16.7999V12ZM10.8 13.2V15.6H13.2V13.2H10.8Z" fill="#F9F8FD"/>
</svg>
