<svg width="24" height="24" viewBox="0 0 24 24" fill="none" xmlns="http://www.w3.org/2000/svg">
<path fill-rule="evenodd" clip-rule="evenodd" d="M7.4078 0.913446C8.86371 0.310389 10.4241 0 12 0C13.5759 0 15.1363 0.310389 16.5922 0.913446C18.0481 1.5165 19.371 2.40042 20.4853 3.51472C21.5996 4.62902 22.4835 5.95189 23.0866 7.4078C23.6896 8.86371 24 10.4241 24 12C24 13.5759 23.6896 15.1363 23.0866 16.5922C22.4835 18.0481 21.5996 19.371 20.4853 20.4853C19.371 21.5996 18.0481 22.4835 16.5922 23.0866C15.1363 23.6896 13.5759 24 12 24C10.4241 24 8.86371 23.6896 7.4078 23.0866C5.95189 22.4835 4.62902 21.5996 3.51472 20.4853C2.40042 19.371 1.5165 18.0481 0.913446 16.5922C0.310389 15.1363 0 13.5759 0 12C0 10.4241 0.310389 8.86371 0.913446 7.4078C1.5165 5.95189 2.40042 4.62902 3.51472 3.51472C4.62902 2.40042 5.95189 1.5165 7.4078 0.913446ZM10.8 2.47529C9.95164 2.58218 9.11954 2.80216 8.32624 3.13076C7.16151 3.6132 6.10322 4.32033 5.21177 5.21178C4.32033 6.10322 3.6132 7.16151 3.13076 8.32624C2.80216 9.11954 2.58218 9.95164 2.47529 10.8H3.6C4.26274 10.8 4.8 11.3373 4.8 12C4.8 12.6627 4.26274 13.2 3.6 13.2H2.47529C2.58218 14.0484 2.80216 14.8805 3.13076 15.6738C3.6132 16.8385 4.32033 17.8968 5.21177 18.7882C6.10322 19.6797 7.16151 20.3868 8.32624 20.8692C9.11954 21.1978 9.95164 21.4178 10.8 21.5247V20.4C10.8 19.7373 11.3373 19.2 12 19.2C12.6627 19.2 13.2 19.7373 13.2 20.4V21.5247C14.0484 21.4178 14.8805 21.1978 15.6738 20.8692C16.8385 20.3868 17.8968 19.6797 18.7882 18.7882C19.6797 17.8968 20.3868 16.8385 20.8692 15.6738C21.1978 14.8805 21.4178 14.0484 21.5247 13.2H20.4C19.7373 13.2 19.2 12.6627 19.2 12C19.2 11.3373 19.7373 10.8 20.4 10.8H21.5247C21.4178 9.95164 21.1978 9.11954 20.8692 8.32624C20.3868 7.16151 19.6797 6.10322 18.7882 5.21178C17.8968 4.32033 16.8385 3.6132 15.6738 3.13076C14.8805 2.80216 14.0484 2.58218 13.2 2.47529V3.6C13.2 4.26274 12.6627 4.8 12 4.8C11.3373 4.8 10.8 4.26274 10.8 3.6V2.47529ZM17.6485 6.35147C17.9699 6.67287 18.0822 7.14827 17.9384 7.57947L15.5384 14.7795C15.419 15.1378 15.1378 15.419 14.7795 15.5384L7.57947 17.9384C7.14827 18.0822 6.67287 17.9699 6.35147 17.6485C6.03007 17.3271 5.91785 16.8517 6.06158 16.4205L8.46158 9.22053C8.58102 8.8622 8.8622 8.58102 9.22053 8.46158L16.4205 6.06158C16.8517 5.91785 17.3271 6.03007 17.6485 6.35147ZM10.5487 10.5487L9.09737 14.9026L13.4513 13.4513L14.9026 9.09737L10.5487 10.5487Z" fill="#F9F8FD"/>
</svg>
