<svg width="218" height="55" viewBox="0 0 218 55" fill="none" xmlns="http://www.w3.org/2000/svg">
<path d="M76.8559 22.7494C74.8378 22.7494 72.9458 23.8565 71.1799 26.0709V36.3718C71.1799 36.7923 71.0257 37.1567 70.7174 37.465C70.4091 37.7733 70.0447 37.9275 69.6242 37.9275C69.2038 37.9275 68.8394 37.7733 68.5311 37.465C68.2227 37.1567 68.0686 36.7923 68.0686 36.3718V14.0041C68.0686 13.5556 68.2087 13.1912 68.489 12.9109C68.7974 12.6026 69.1758 12.4484 69.6242 12.4484C70.0447 12.4484 70.4091 12.6026 70.7174 12.9109C71.0257 13.1912 71.1799 13.5556 71.1799 14.0041V23.0437C72.1049 22.0907 72.9037 21.4039 73.5764 20.9835C74.8658 20.2267 76.0991 19.8483 77.2764 19.8483C78.4817 19.8483 79.4627 20.0305 80.2195 20.3948C80.9763 20.7312 81.621 21.2217 82.1536 21.8664C83.2187 23.1278 83.7513 24.6974 83.7513 26.5754V36.3718C83.7513 36.7923 83.5971 37.1567 83.2888 37.465C82.9804 37.7733 82.616 37.9275 82.1956 37.9275C81.7752 37.9275 81.4108 37.7733 81.1024 37.465C80.7941 37.1567 80.6399 36.7923 80.6399 36.3718V26.9118C80.6399 25.6224 80.3456 24.6133 79.757 23.8846C79.1684 23.1278 78.2014 22.7494 76.8559 22.7494Z" fill="#F9F8FD"/>
<path d="M102.251 20.0164C102.699 20.0164 103.064 20.1706 103.344 20.4789C103.652 20.7873 103.807 21.1096 103.807 21.446C103.807 21.7823 103.765 22.0346 103.68 22.2028L94.3045 44.7808C94.0242 45.5096 93.5477 45.8739 92.875 45.8739C92.4825 45.8739 92.1322 45.7198 91.8238 45.4115C91.5435 45.1031 91.4034 44.7948 91.4034 44.4865C91.4034 44.2062 91.4314 43.9679 91.4875 43.7717L93.7159 38.0116L87.241 22.2448C87.1569 22.0206 87.1148 21.7543 87.1148 21.446C87.1148 21.1096 87.255 20.7873 87.5353 20.4789C87.8436 20.1706 88.18 20.0164 88.5444 20.0164C89.3012 20.0164 89.8197 20.3388 90.1 20.9835L95.3976 34.1435L100.821 21.0255C101.102 20.3248 101.578 19.9884 102.251 20.0164Z" fill="#F9F8FD"/>
<path d="M110.45 22.455C112.159 20.7172 114.122 19.8483 116.336 19.8483C118.578 19.8483 120.484 20.6331 122.054 22.2028C123.792 23.9406 124.675 26.197 124.703 28.972C124.703 31.775 123.82 34.0454 122.054 35.7832C120.428 37.3529 118.508 38.1237 116.294 38.0957C114.108 38.0957 112.159 37.2268 110.45 35.4889V44.2762C110.45 44.7247 110.295 45.1031 109.987 45.4115C109.707 45.7198 109.342 45.8739 108.894 45.8739C108.446 45.8739 108.067 45.7198 107.759 45.4115C107.478 45.1031 107.338 44.7247 107.338 44.2762V21.5721C107.338 21.1517 107.478 20.7873 107.759 20.4789C108.067 20.1706 108.446 20.0164 108.894 20.0164C109.342 20.0164 109.707 20.1706 109.987 20.4789C110.295 20.7592 110.45 21.1236 110.45 21.5721V22.455ZM110.45 32.5878C112.019 34.3257 113.841 35.1806 115.915 35.1525C118.55 35.1525 120.302 33.9893 121.171 31.6628C121.451 30.878 121.577 29.981 121.549 28.972C121.549 27.0099 121.031 25.4682 119.994 24.3471C118.985 23.31 117.625 22.7914 115.915 22.7914C113.841 22.7914 112.019 23.6463 110.45 25.3561V32.5878Z" fill="#F9F8FD"/>
<path d="M131.136 30.1072C131.332 31.6488 131.92 32.8821 132.902 33.8071C133.911 34.7041 135.284 35.1525 137.022 35.1525C138.788 35.1525 140.287 34.8722 141.521 34.3116C141.913 34.1154 142.263 34.0173 142.572 34.0173C142.88 33.9893 143.16 34.1014 143.413 34.3537C143.693 34.606 143.833 34.8863 143.833 35.1946C143.833 35.8112 143.581 36.2457 143.076 36.498C142.6 36.7502 142.165 36.9745 141.773 37.1707C141.381 37.3669 140.96 37.5351 140.512 37.6752C139.475 37.9555 138.269 38.0957 136.896 38.0957C134.065 38.0957 131.864 37.3108 130.295 35.7412C128.753 34.1435 127.982 31.8871 127.982 28.972C127.982 26.4493 128.641 24.3471 129.958 22.6653C131.444 20.7873 133.532 19.8483 136.223 19.8483C138.802 19.8483 140.834 20.7172 142.32 22.455C143.721 24.0808 144.422 26.1129 144.422 28.5515C144.422 28.972 144.268 29.3364 143.959 29.6447C143.679 29.953 143.315 30.1072 142.866 30.1072H131.136ZM136.223 22.4971C134.177 22.4971 132.691 23.4081 131.766 25.23C131.43 25.8747 131.22 26.6455 131.136 27.5425H141.31C141.226 25.9167 140.624 24.6274 139.503 23.6743C138.606 22.8895 137.512 22.4971 136.223 22.4971Z" fill="#F9F8FD"/>
<path d="M161.786 22.455V21.6141C161.786 21.1937 161.926 20.8293 162.207 20.521C162.515 20.1846 162.879 20.0164 163.3 20.0164C163.72 20.0164 164.085 20.1706 164.393 20.4789C164.729 20.7873 164.898 21.1657 164.898 21.6141V37.0025C164.898 39.9176 164.197 42.146 162.795 43.6876C161.394 45.2573 159.404 46.0421 156.825 46.0421C154.078 46.0421 151.611 45.4395 149.425 44.2342C149.033 43.9819 148.836 43.6316 148.836 43.1831C148.836 42.7346 148.963 42.3562 149.215 42.0479C149.495 41.7676 149.775 41.6274 150.056 41.6274C150.336 41.6274 150.588 41.6695 150.813 41.7536C152.55 42.6225 154.442 43.0569 156.489 43.0569C160.02 43.0569 161.786 41.193 161.786 37.465V35.1525C160.161 36.8904 158.198 37.7593 155.9 37.7593C153.714 37.7593 151.836 37.0165 150.266 35.5309C148.444 33.8492 147.533 31.6068 147.533 28.8038C147.533 25.9728 148.444 23.7164 150.266 22.0346C151.836 20.549 153.742 19.8202 155.984 19.8483C158.226 19.8483 160.161 20.7172 161.786 22.455ZM161.786 25.23C161.142 24.5573 160.399 23.9686 159.558 23.4641C158.745 22.9596 157.834 22.7073 156.825 22.7073C155.816 22.7073 154.947 22.8334 154.218 23.0857C153.517 23.338 152.901 23.7164 152.368 24.2209C151.247 25.2861 150.686 26.8137 150.686 28.8038C150.686 31.775 151.864 33.681 154.218 34.5219C154.947 34.7741 155.816 34.9003 156.825 34.9003C158.507 34.9003 160.161 34.0454 161.786 32.3355V25.23Z" fill="#F9F8FD"/>
<path d="M170.952 21.0676C172.886 20.2267 174.89 19.8202 176.964 19.8483C179.291 19.8483 181.099 20.563 182.388 21.9925C183.537 23.2259 184.126 24.7675 184.154 26.6175V36.3718C184.154 36.7923 183.986 37.1567 183.649 37.465C183.341 37.7733 182.963 37.9275 182.514 37.9275C182.094 37.9275 181.729 37.7733 181.421 37.465C181.113 37.1567 180.959 36.7923 180.959 36.3718V35.4889C180.342 36.1336 179.515 36.7362 178.478 37.2968C177.441 37.8294 176.123 38.0957 174.526 38.0957C172.928 38.0957 171.597 37.6332 170.532 36.7082C169.438 35.7552 168.892 34.5079 168.892 32.9662C168.892 31.2564 169.536 29.911 170.826 28.9299C172.227 27.8648 174.217 27.3462 176.796 27.3743H180.959V27.08C180.959 25.5383 180.58 24.4452 179.823 23.8005C179.095 23.1558 177.945 22.8334 176.376 22.8334C175.058 22.8334 173.531 23.0997 171.793 23.6323C171.625 23.6884 171.414 23.7164 171.162 23.7164C170.938 23.7164 170.7 23.6043 170.447 23.38C170.195 23.1278 170.055 22.7494 170.027 22.2448C170.027 21.7122 170.335 21.3198 170.952 21.0676ZM172.045 32.5878C172.045 34.4378 173.264 35.3488 175.703 35.3207C176.768 35.3207 177.763 35.0685 178.688 34.5639C179.641 34.0314 180.398 33.4427 180.959 32.798V29.897H177.259C175.633 29.897 174.358 30.1072 173.433 30.5276C172.508 30.92 172.045 31.6068 172.045 32.5878Z" fill="#F9F8FD"/>
<path d="M195.8 35.3207C196.417 35.3207 196.852 35.2787 197.104 35.1946C197.384 35.0825 197.678 35.0264 197.987 35.0264C198.295 35.0264 198.575 35.1525 198.828 35.4048C199.08 35.6291 199.206 35.9794 199.206 36.4559C199.206 36.9044 198.982 37.2268 198.533 37.423C197.552 37.8714 196.711 38.0957 196.011 38.0957C195.31 38.0957 194.665 38.0536 194.077 37.9695C193.516 37.9135 192.969 37.7313 192.437 37.423C191.176 36.6942 190.545 35.4048 190.545 33.5548V22.8755H188.106C187.686 22.8755 187.462 22.6512 187.434 22.2028C187.434 22.0066 187.546 21.8244 187.77 21.6562L192.437 17.0733C192.633 16.8771 192.829 16.779 193.025 16.779C193.222 16.751 193.376 16.807 193.488 16.9472C193.6 17.0873 193.656 17.2555 193.656 17.4517V20.1846H197.566C197.959 20.1846 198.281 20.3108 198.533 20.563C198.786 20.8153 198.912 21.1376 198.912 21.5301C198.912 21.9225 198.786 22.2448 198.533 22.4971C198.281 22.7494 197.959 22.8755 197.566 22.8755H193.656V33.3026C193.656 34.1715 193.922 34.7601 194.455 35.0685C194.735 35.2366 195.184 35.3207 195.8 35.3207Z" fill="#F9F8FD"/>
<path d="M204.714 30.1072C204.91 31.6488 205.499 32.8821 206.48 33.8071C207.489 34.7041 208.862 35.1525 210.6 35.1525C212.366 35.1525 213.866 34.8722 215.099 34.3116C215.491 34.1154 215.842 34.0173 216.15 34.0173C216.458 33.9893 216.739 34.1014 216.991 34.3537C217.271 34.606 217.411 34.8863 217.411 35.1946C217.411 35.8112 217.159 36.2457 216.655 36.498C216.178 36.7502 215.744 36.9745 215.351 37.1707C214.959 37.3669 214.538 37.5351 214.09 37.6752C213.053 37.9555 211.847 38.0957 210.474 38.0957C207.643 38.0957 205.443 37.3108 203.873 35.7412C202.331 34.1435 201.561 31.8871 201.561 28.972C201.561 26.4493 202.219 24.3471 203.537 22.6653C205.022 20.7873 207.11 19.8483 209.801 19.8483C212.38 19.8483 214.412 20.7172 215.898 22.455C217.299 24.0808 218 26.1129 218 28.5515C218 28.972 217.846 29.3364 217.538 29.6447C217.257 29.953 216.893 30.1072 216.444 30.1072H204.714ZM209.801 22.4971C207.755 22.4971 206.27 23.4081 205.345 25.23C205.008 25.8747 204.798 26.6455 204.714 27.5425H214.889C214.805 25.9167 214.202 24.6274 213.081 23.6743C212.184 22.8895 211.091 22.4971 209.801 22.4971Z" fill="#F9F8FD"/>
<path d="M4.76583 28.5106L3.43334 28.394C1.72646 28.2447 0.525756 26.6485 0.855561 24.9671C1.13922 23.521 2.46782 22.5216 3.93588 22.6501L5.85816 22.8182C8.41618 23.042 10.7321 21.303 11.2305 18.7841L13.0873 9.40114C13.3722 7.96139 14.6959 6.96742 16.158 7.09534C17.862 7.24442 19.0596 8.83934 18.7276 10.5173L16.7828 20.3449C16.4267 22.1446 17.7112 23.8552 19.5388 24.0151C21.1176 24.1533 22.544 23.0721 22.8376 21.5147L25.7938 5.83263C26.0694 4.37062 27.4084 3.35564 28.8905 3.48531C30.5958 3.6345 31.7998 5.2229 31.4827 6.90504L28.7282 21.5167C28.4003 23.2565 29.6456 24.8994 31.4093 25.0537C32.9589 25.1892 34.3542 24.1155 34.62 22.5828L38.0541 2.7814C38.316 1.27138 39.6907 0.213486 41.2174 0.347058C42.938 0.49759 44.1616 2.08767 43.8665 3.78943L40.785 21.5578C40.3882 23.8456 42.0332 25.9831 44.3463 26.1855L45.5457 26.2904C47.2526 26.4398 48.4533 28.036 48.1235 29.7174C47.8398 31.1635 46.5112 32.1629 45.0431 32.0344L43.3073 31.8826C40.8275 31.6656 38.5901 33.3721 38.1437 35.8211L36.3917 45.4321C36.1188 46.9291 34.7512 47.9723 33.2353 47.8397C31.506 47.6884 30.2813 46.0828 30.5926 44.375L32.4384 34.2495C32.7578 32.4972 31.5012 30.8497 29.7268 30.6944C28.1787 30.559 26.7799 31.6188 26.4915 33.1458L23.5441 48.7499C23.2681 50.2114 21.9293 51.2258 20.4477 51.0961C18.7421 50.9469 17.538 49.3579 17.8558 47.6755L20.5703 33.3046C20.9097 31.5077 19.6237 29.8105 17.802 29.6511C16.2134 29.5121 14.7797 30.6044 14.4919 32.1729L10.8168 52.201C10.5488 53.6617 9.21371 54.6788 7.73432 54.5493C6.04384 54.4014 4.84737 52.8309 5.15364 51.1618L8.42795 33.3176C8.86255 30.9491 7.1647 28.7205 4.76583 28.5106Z" fill="#F9F8FD"/>
</svg>
