<svg width="986" height="273" viewBox="0 0 986 273" fill="none" xmlns="http://www.w3.org/2000/svg">
<path d="M30.6126 141.182L24.6424 140.66C16.9948 139.991 11.6151 132.839 13.0927 125.306C14.3637 118.826 20.3164 114.349 26.894 114.924L35.5067 115.678C46.9678 116.68 57.3441 108.889 59.5775 97.6026L67.8967 55.5628C69.1732 49.1121 75.1039 44.6587 81.6547 45.2318C89.2893 45.8997 94.6553 53.0457 93.1676 60.5637L84.4541 104.596C82.8584 112.659 88.6138 120.324 96.8023 121.04C103.876 121.659 110.267 116.815 111.582 109.837L124.827 39.5742C126.062 33.0238 132.062 28.4762 138.702 29.0572C146.343 29.7256 151.737 36.8424 150.316 44.3791L137.975 109.846C136.506 117.641 142.085 125.002 149.988 125.693C156.931 126.301 163.182 121.49 164.373 114.623L179.759 25.9034C180.933 19.1378 187.092 14.3979 193.932 14.9964C201.641 15.6708 207.124 22.7951 205.802 30.4198L191.995 110.03C190.217 120.28 197.588 129.858 207.951 130.765L213.325 131.235C220.973 131.904 226.352 139.056 224.875 146.589C223.604 153.068 217.651 157.546 211.074 156.97L203.296 156.29C192.185 155.318 182.161 162.964 180.161 173.936L172.311 216.998C171.088 223.706 164.961 228.379 158.169 227.785C150.421 227.107 144.934 219.914 146.328 212.262L154.598 166.895C156.03 159.044 150.399 151.662 142.449 150.967C135.513 150.36 129.246 155.108 127.954 161.95L114.748 231.864C113.511 238.412 107.513 242.956 100.875 242.376C93.2327 241.707 87.838 234.587 89.2618 227.05L101.424 162.661C102.944 154.61 97.1826 147.006 89.0206 146.292C81.9028 145.669 75.4793 150.563 74.1897 157.591L57.7238 247.326C56.5229 253.87 50.5411 258.427 43.9128 257.848C36.3386 257.185 30.9779 250.148 32.3501 242.67L47.0205 162.72C48.9678 152.108 41.3606 142.122 30.6126 141.182Z" fill="#6162FF"/>
<path d="M30.6126 141.182L24.6424 140.66C16.9948 139.991 11.6151 132.839 13.0927 125.306C14.3637 118.826 20.3164 114.349 26.894 114.924L35.5067 115.678C46.9678 116.68 57.3441 108.889 59.5775 97.6026L67.8967 55.5628C69.1732 49.1121 75.1039 44.6587 81.6547 45.2318C89.2893 45.8997 94.6553 53.0457 93.1676 60.5637L84.4541 104.596C82.8584 112.659 88.6138 120.324 96.8023 121.04C103.876 121.659 110.267 116.815 111.582 109.837L124.827 39.5742C126.062 33.0238 132.062 28.4762 138.702 29.0572C146.343 29.7256 151.737 36.8424 150.316 44.3791L137.975 109.846C136.506 117.641 142.085 125.002 149.988 125.693C156.931 126.301 163.182 121.49 164.373 114.623L179.759 25.9034C180.933 19.1378 187.092 14.3979 193.932 14.9964C201.641 15.6708 207.124 22.7951 205.802 30.4198L191.995 110.03C190.217 120.28 197.588 129.858 207.951 130.765L213.325 131.235C220.973 131.904 226.352 139.056 224.875 146.589C223.604 153.068 217.651 157.546 211.074 156.97L203.296 156.29C192.185 155.318 182.161 162.964 180.161 173.936L172.311 216.998C171.088 223.706 164.961 228.379 158.169 227.785C150.421 227.107 144.934 219.914 146.328 212.262L154.598 166.895C156.03 159.044 150.399 151.662 142.449 150.967C135.513 150.36 129.246 155.108 127.954 161.95L114.748 231.864C113.511 238.412 107.513 242.956 100.875 242.376C93.2327 241.707 87.838 234.587 89.2618 227.05L101.424 162.661C102.944 154.61 97.1826 147.006 89.0206 146.292C81.9028 145.669 75.4793 150.563 74.1897 157.591L57.7238 247.326C56.5229 253.87 50.5411 258.427 43.9128 257.848C36.3386 257.185 30.9779 250.148 32.3501 242.67L47.0205 162.72C48.9678 152.108 41.3606 142.122 30.6126 141.182Z" fill="url(#paint0_linear_216_39)"/>
<path d="M353.609 115.369C344.567 115.369 336.09 120.33 328.178 130.251V176.404C328.178 178.288 327.487 179.92 326.106 181.302C324.724 182.683 323.092 183.374 321.208 183.374C319.324 183.374 317.691 182.683 316.31 181.302C314.929 179.92 314.238 178.288 314.238 176.404V76.1859C314.238 74.1765 314.866 72.5439 316.122 71.288C317.503 69.9065 319.198 69.2158 321.208 69.2158C323.092 69.2158 324.724 69.9065 326.106 71.288C327.487 72.5439 328.178 74.1765 328.178 76.1859V116.688C332.322 112.418 335.901 109.341 338.916 107.457C344.693 104.066 350.218 102.371 355.493 102.371C360.893 102.371 365.289 103.187 368.68 104.82C372.07 106.327 374.959 108.524 377.345 111.413C382.117 117.064 384.503 124.097 384.503 132.511V176.404C384.503 178.288 383.813 179.92 382.431 181.302C381.05 182.683 379.417 183.374 377.533 183.374C375.65 183.374 374.017 182.683 372.636 181.302C371.254 179.92 370.563 178.288 370.563 176.404V134.018C370.563 128.241 369.245 123.72 366.607 120.455C363.97 117.064 359.637 115.369 353.609 115.369Z" fill="#6162FF"/>
<path d="M467.391 103.124C469.4 103.124 471.033 103.815 472.288 105.196C473.67 106.578 474.361 108.022 474.361 109.529C474.361 111.036 474.172 112.166 473.795 112.92L431.787 214.08C430.531 217.345 428.396 218.978 425.382 218.978C423.624 218.978 422.054 218.287 420.672 216.906C419.416 215.524 418.789 214.143 418.789 212.761C418.789 211.505 418.914 210.438 419.165 209.559L429.149 183.751L400.139 113.108C399.762 112.104 399.574 110.911 399.574 109.529C399.574 108.022 400.202 106.578 401.458 105.196C402.839 103.815 404.346 103.124 405.979 103.124C409.37 103.124 411.693 104.568 412.949 107.457L436.685 166.42L460.986 107.645C462.241 104.506 464.376 102.999 467.391 103.124Z" fill="#6162FF"/>
<path d="M504.125 114.05C511.785 106.264 520.576 102.371 530.498 102.371C540.545 102.371 549.085 105.887 556.117 112.92C563.904 120.706 567.86 130.816 567.985 143.249C567.985 155.808 564.029 165.98 556.117 173.767C548.833 180.799 540.231 184.253 530.309 184.127C520.514 184.127 511.785 180.234 504.125 172.448V211.819C504.125 213.829 503.434 215.524 502.052 216.906C500.797 218.287 499.164 218.978 497.155 218.978C495.145 218.978 493.45 218.287 492.068 216.906C490.812 215.524 490.184 213.829 490.184 211.819V110.094C490.184 108.21 490.812 106.578 492.068 105.196C493.45 103.815 495.145 103.124 497.155 103.124C499.164 103.124 500.797 103.815 502.052 105.196C503.434 106.452 504.125 108.085 504.125 110.094V114.05ZM504.125 159.45C511.157 167.236 519.321 171.066 528.614 170.941C540.419 170.941 548.268 165.729 552.161 155.305C553.417 151.789 553.982 147.77 553.857 143.249C553.857 134.458 551.533 127.551 546.887 122.527C542.366 117.881 536.275 115.557 528.614 115.557C519.321 115.557 511.157 119.388 504.125 127.048V159.45Z" fill="#6162FF"/>
<path d="M596.807 148.335C597.687 155.243 600.324 160.768 604.719 164.913C609.24 168.932 615.394 170.941 623.181 170.941C631.093 170.941 637.811 169.685 643.337 167.173C645.095 166.294 646.665 165.855 648.047 165.855C649.428 165.729 650.684 166.231 651.814 167.362C653.07 168.492 653.698 169.748 653.698 171.129C653.698 173.892 652.568 175.839 650.307 176.969C648.172 178.099 646.226 179.104 644.467 179.983C642.709 180.862 640.825 181.616 638.816 182.244C634.169 183.5 628.769 184.127 622.615 184.127C609.931 184.127 600.073 180.611 593.04 173.578C586.133 166.42 582.679 156.31 582.679 143.249C582.679 131.946 585.63 122.527 591.533 114.992C598.189 106.578 607.545 102.371 619.601 102.371C631.155 102.371 640.26 106.264 646.916 114.05C653.196 121.334 656.335 130.439 656.335 141.365C656.335 143.249 655.645 144.882 654.263 146.263C653.007 147.645 651.375 148.335 649.365 148.335H596.807ZM619.601 114.239C610.434 114.239 603.777 118.32 599.633 126.483C598.126 129.372 597.184 132.825 596.807 136.844H642.395C642.019 129.56 639.318 123.783 634.295 119.513C630.276 115.997 625.378 114.239 619.601 114.239Z" fill="#6162FF"/>
<path d="M734.136 114.05V110.283C734.136 108.399 734.764 106.766 736.02 105.385C737.401 103.878 739.034 103.124 740.918 103.124C742.802 103.124 744.434 103.815 745.816 105.196C747.323 106.578 748.076 108.273 748.076 110.283V179.23C748.076 192.291 744.937 202.275 738.657 209.182C732.378 216.215 723.461 219.731 711.907 219.731C699.6 219.731 688.548 217.031 678.753 211.631C676.994 210.501 676.115 208.931 676.115 206.921C676.115 204.912 676.68 203.217 677.811 201.835C679.067 200.579 680.322 199.951 681.578 199.951C682.834 199.951 683.964 200.14 684.969 200.517C692.756 204.41 701.233 206.356 710.4 206.356C726.224 206.356 734.136 198.005 734.136 181.302V170.941C726.852 178.727 718.061 182.62 707.763 182.62C697.967 182.62 689.553 179.292 682.52 172.636C674.357 165.101 670.276 155.054 670.276 142.496C670.276 129.811 674.357 119.702 682.52 112.166C689.553 105.51 698.093 102.245 708.14 102.371C718.187 102.371 726.852 106.264 734.136 114.05ZM734.136 126.483C731.248 123.469 727.92 120.832 724.152 118.571C720.51 116.311 716.429 115.18 711.907 115.18C707.386 115.18 703.493 115.746 700.228 116.876C697.088 118.006 694.325 119.702 691.939 121.962C686.916 126.734 684.404 133.579 684.404 142.496C684.404 155.808 689.679 164.348 700.228 168.115C703.493 169.245 707.386 169.811 711.907 169.811C719.443 169.811 726.852 165.98 734.136 158.319V126.483Z" fill="#6162FF"/>
<path d="M775.203 107.834C783.868 104.066 792.848 102.245 802.141 102.371C812.565 102.371 820.665 105.573 826.442 111.978C831.591 117.504 834.229 124.411 834.354 132.7V176.404C834.354 178.288 833.601 179.92 832.094 181.302C830.712 182.683 829.017 183.374 827.007 183.374C825.124 183.374 823.491 182.683 822.11 181.302C820.728 179.92 820.037 178.288 820.037 176.404V172.448C817.274 175.336 813.57 178.037 808.923 180.548C804.276 182.934 798.374 184.127 791.215 184.127C784.057 184.127 778.091 182.055 773.319 177.911C768.421 173.641 765.972 168.052 765.972 161.145C765.972 153.484 768.861 147.456 774.638 143.061C780.917 138.288 789.834 135.965 801.388 136.091H820.037V134.772C820.037 127.865 818.342 122.967 814.951 120.078C811.686 117.19 806.537 115.746 799.504 115.746C793.601 115.746 786.757 116.939 778.971 119.325C778.217 119.576 777.275 119.702 776.145 119.702C775.14 119.702 774.073 119.199 772.942 118.195C771.812 117.064 771.184 115.369 771.059 113.108C771.059 110.722 772.44 108.964 775.203 107.834ZM780.101 159.45C780.101 167.738 785.564 171.82 796.49 171.694C801.262 171.694 805.721 170.564 809.865 168.304C814.135 165.917 817.526 163.28 820.037 160.392V147.393H803.46C796.176 147.393 790.462 148.335 786.317 150.219C782.173 151.977 780.101 155.054 780.101 159.45Z" fill="#6162FF"/>
<path d="M886.535 171.694C889.298 171.694 891.245 171.506 892.375 171.129C893.631 170.627 894.95 170.376 896.331 170.376C897.713 170.376 898.969 170.941 900.099 172.071C901.229 173.076 901.794 174.646 901.794 176.781C901.794 178.79 900.789 180.234 898.78 181.113C894.385 183.123 890.617 184.127 887.477 184.127C884.338 184.127 881.449 183.939 878.812 183.562C876.3 183.311 873.851 182.495 871.465 181.113C865.814 177.848 862.988 172.071 862.988 163.782V115.934H852.062C850.178 115.934 849.173 114.929 849.048 112.92C849.048 112.041 849.55 111.225 850.555 110.471L871.465 89.9376C872.344 89.0585 873.223 88.6189 874.102 88.6189C874.982 88.4933 875.672 88.7445 876.175 89.3725C876.677 90.0004 876.928 90.7539 876.928 91.633V103.878H894.447C896.206 103.878 897.65 104.443 898.78 105.573C899.91 106.703 900.476 108.148 900.476 109.906C900.476 111.664 899.91 113.108 898.78 114.239C897.65 115.369 896.206 115.934 894.447 115.934H876.928V162.652C876.928 166.545 878.121 169.183 880.507 170.564C881.763 171.318 883.773 171.694 886.535 171.694Z" fill="#6162FF"/>
<path d="M926.472 148.335C927.351 155.243 929.988 160.768 934.384 164.913C938.905 168.932 945.059 170.941 952.845 170.941C960.757 170.941 967.476 169.685 973.002 167.173C974.76 166.294 976.33 165.855 977.711 165.855C979.093 165.729 980.349 166.231 981.479 167.362C982.735 168.492 983.363 169.748 983.363 171.129C983.363 173.892 982.232 175.839 979.972 176.969C977.837 178.099 975.89 179.104 974.132 179.983C972.374 180.862 970.49 181.616 968.481 182.244C963.834 183.5 958.434 184.127 952.28 184.127C939.596 184.127 929.737 180.611 922.704 173.578C915.797 166.42 912.343 156.31 912.343 143.249C912.343 131.946 915.295 122.527 921.197 114.992C927.853 106.578 937.21 102.371 949.266 102.371C960.82 102.371 969.925 106.264 976.581 114.05C982.86 121.334 986 130.439 986 141.365C986 143.249 985.309 144.882 983.928 146.263C982.672 147.645 981.039 148.335 979.03 148.335H926.472ZM949.266 114.239C940.098 114.239 933.442 118.32 929.298 126.483C927.791 129.372 926.849 132.825 926.472 136.844H972.06C971.683 129.56 968.983 123.783 963.96 119.513C959.941 115.997 955.043 114.239 949.266 114.239Z" fill="#6162FF"/>
<defs>
<linearGradient id="paint0_linear_216_39" x1="22.5565" y1="-0.380304" x2="215.27" y2="272.785" gradientUnits="userSpaceOnUse">
<stop offset="0.259569" stop-color="#6162FF"/>
<stop offset="0.780749" stop-color="#AE46FF"/>
</linearGradient>
</defs>
</svg>
