<svg width="128" height="128" viewBox="0 0 32 32" fill="none" xmlns="http://www.w3.org/2000/svg">
<path d="M5.73095 17.407H5.02397C4.11834 17.407 3.41259 16.6207 3.50879 15.7189C3.59153 14.9433 4.24505 14.3551 5.02397 14.3551H6.04387C7.40109 14.3551 8.5404 13.3313 8.68683 11.98L9.23226 6.94683C9.31596 6.17453 9.96714 5.58935 10.7429 5.58935C11.647 5.58935 12.3511 6.37509 12.2535 7.27517L11.6822 12.5469C11.5776 13.5123 12.3328 14.3551 13.3025 14.3551C14.1401 14.3551 14.8414 13.7191 14.9242 12.8844L15.7584 4.47901C15.8361 3.6954 16.4945 3.09843 17.2807 3.09843C18.1856 3.09843 18.8927 3.88044 18.8032 4.78204L18.0259 12.6137C17.9335 13.5462 18.6649 14.3551 19.6006 14.3551C20.4228 14.3551 21.108 13.7245 21.1774 12.9041L22.0733 2.30453C22.1417 1.49624 22.8168 0.875 23.6269 0.875C24.5397 0.875 25.2573 1.65699 25.1803 2.56793L24.3763 12.0792C24.2727 13.3038 25.2374 14.3551 26.4646 14.3551H27.101C28.0067 14.3551 28.7124 15.1414 28.6162 16.0431C28.5334 16.8187 27.8799 17.407 27.101 17.407H26.18C24.8642 17.407 23.7649 18.41 23.6425 19.7219L23.1628 24.8706C23.0881 25.6725 22.416 26.2857 21.6117 26.2857C20.6942 26.2857 19.9754 25.4956 20.0607 24.5807L20.566 19.1565C20.6536 18.2178 19.916 17.407 18.9745 17.407C18.1532 17.407 17.4655 18.0304 17.384 18.8489L16.5509 27.2127C16.4729 27.996 15.8146 28.5927 15.0286 28.5927C14.1236 28.5927 13.4164 27.8103 13.5062 26.9086L14.2735 19.2057C14.3694 18.2426 13.6141 17.407 12.6476 17.407C11.8047 17.407 11.1001 18.0491 11.0208 18.8894L10.0084 29.6196C9.93455 30.4021 9.27842 31 8.49349 31C7.59658 31 6.89424 30.227 6.97861 29.3329L7.88066 19.7727C8.00038 18.5038 7.00373 17.407 5.73095 17.407Z" fill="#6162FF"/>
</svg>
