<svg width="24" height="22" viewBox="0 0 24 22" fill="none" xmlns="http://www.w3.org/2000/svg">
<path d="M0 10.8002L5.9994 15.5997V12H16.7983V9.60028H5.9994V6.00064L0 10.8002Z" fill="#F9F8FD"/>
<path d="M13.1999 4.12293e-05C11.7811 -0.00389281 10.3755 0.273747 9.06479 0.816876C7.75403 1.36001 6.56407 2.15783 5.56384 3.16412L7.26047 4.86076C8.84671 3.27451 10.9561 2.3998 13.1999 2.3998C15.4437 2.3998 17.553 3.27451 19.1393 4.86076C20.7255 6.447 21.6002 8.55639 21.6002 10.8002C21.6002 13.0439 20.7255 15.1533 19.1393 16.7396C17.553 18.3258 15.4437 19.2005 13.1999 19.2005C10.9561 19.2005 8.84671 18.3258 7.26047 16.7396L5.56384 18.4362C7.60244 20.476 10.3142 21.6003 13.1999 21.6003C16.0856 21.6003 18.7973 20.476 20.8359 18.4362C22.8757 16.3976 24 13.6859 24 10.8002C24 7.91445 22.8757 5.20272 20.8359 3.16412C19.8357 2.15783 18.6457 1.36001 17.335 0.816876C16.0242 0.273747 14.6187 -0.00389281 13.1999 4.12293e-05Z" fill="#F9F8FD"/>
</svg>
