<svg width="53" height="61" viewBox="0 0 53 61" fill="none" xmlns="http://www.w3.org/2000/svg">
<path d="M6.76592 31.5106L5.43344 31.394C3.72655 31.2447 2.52585 29.6485 2.85565 27.9671C3.13931 26.521 4.46791 25.5216 5.93597 25.6501L7.85825 25.8182C10.4163 26.042 12.7322 24.303 13.2306 21.7841L15.0874 12.4011C15.3723 10.9614 16.696 9.96742 18.1581 10.0953C19.8621 10.2444 21.0597 11.8393 20.7277 13.5173L18.7829 23.3449C18.4267 25.1446 19.7113 26.8552 21.5389 27.0151C23.1177 27.1533 24.5441 26.0721 24.8376 24.5147L27.7939 8.83263C28.0695 7.37062 29.4085 6.35564 30.8906 6.4853C32.5958 6.63449 33.7999 8.2229 33.4828 9.90504L30.7283 24.5167C30.4003 26.2565 31.6456 27.8994 33.4094 28.0537C34.959 28.1892 36.3543 27.1155 36.6201 25.5828L40.0542 5.7814C40.3161 4.27138 41.6907 3.21348 43.2175 3.34706C44.9381 3.49759 46.1617 5.08767 45.8666 6.78943L42.7851 24.5578C42.3883 26.8456 44.0333 28.9831 46.3463 29.1855L47.5458 29.2904C49.2527 29.4398 50.4534 31.036 50.1236 32.7174C49.8399 34.1635 48.5113 35.1629 47.0432 35.0344L45.3074 34.8826C42.8276 34.6656 40.5902 36.3721 40.1438 38.8211L38.3918 48.4321C38.1189 49.9291 36.7512 50.9723 35.2354 50.8397C33.506 50.6884 32.2814 49.0828 32.5927 47.375L34.4385 37.2495C34.7579 35.4972 33.5013 33.8497 31.7269 33.6944C30.1788 33.559 28.78 34.6188 28.4916 36.1458L25.5442 51.7499C25.2682 53.2114 23.9294 54.2258 22.4478 54.0961C20.7422 53.9469 19.5381 52.3579 19.8559 50.6755L22.5704 36.3046C22.9098 34.5077 21.6238 32.8105 19.8021 32.6511C18.2135 32.5121 16.7798 33.6044 16.492 35.1729L12.8169 55.201C12.5489 56.6617 11.2138 57.6788 9.73441 57.5493C8.04393 57.4014 6.84746 55.8309 7.15373 54.1618L10.428 36.3176C10.8626 33.9491 9.16479 31.7205 6.76592 31.5106Z" fill="white"/>
</svg>
