<svg width="26" height="27" viewBox="0 0 26 27" fill="none" xmlns="http://www.w3.org/2000/svg">
<path d="M12.5718 16.9557C14.6054 16.9557 16.2539 15.3072 16.2539 13.2736C16.2539 11.2401 14.6054 9.59155 12.5718 9.59155C10.5383 9.59155 8.88972 11.2401 8.88972 13.2736C8.88972 15.3072 10.5383 16.9557 12.5718 16.9557Z" stroke="#F9F8FD" stroke-width="1.84105"/>
<path d="M14.7381 1.18656C14.2877 1 13.7157 1 12.5718 1C11.4279 1 10.856 1 10.4055 1.18656C10.1075 1.30993 9.8367 1.49082 9.60862 1.7189C9.38054 1.94697 9.19965 2.21777 9.07628 2.51579C8.96337 2.7895 8.91795 3.10984 8.90077 3.57501C8.89312 3.9113 8.80013 4.24012 8.63052 4.5306C8.46091 4.82108 8.22025 5.06369 7.93115 5.23563C7.63769 5.40015 7.30721 5.48737 6.97078 5.48909C6.63435 5.4908 6.303 5.40697 6.00787 5.24545C5.59548 5.02698 5.29723 4.9067 5.00143 4.86742C4.35623 4.78258 3.70374 4.9574 3.18739 5.35346C2.802 5.65171 2.51479 6.14634 1.94284 7.13682C1.37089 8.1273 1.08369 8.62193 1.02109 9.10674C0.978914 9.42641 1.00013 9.75126 1.08352 10.0627C1.16692 10.3742 1.31086 10.6662 1.50713 10.922C1.68878 11.1577 1.94284 11.3553 2.33683 11.6032C2.91737 11.9677 3.29049 12.5888 3.29049 13.2736C3.29049 13.9585 2.91737 14.5796 2.33683 14.9429C1.94284 15.192 1.68755 15.3896 1.50713 15.6253C1.31086 15.8811 1.16692 16.1731 1.08352 16.4846C1.00013 16.796 0.978914 17.1209 1.02109 17.4405C1.08492 17.9241 1.37089 18.42 1.94162 19.4105C2.51479 20.4009 2.80077 20.8956 3.18739 21.1938C3.44322 21.3901 3.7352 21.534 4.04667 21.6174C4.35814 21.7008 4.68299 21.722 5.00266 21.6799C5.29723 21.6406 5.59548 21.5203 6.00787 21.3018C6.303 21.1403 6.63435 21.0565 6.97078 21.0582C7.30721 21.0599 7.63769 21.1471 7.93115 21.3116C8.52397 21.6553 8.87622 22.2874 8.90077 22.9723C8.91795 23.4387 8.96214 23.7578 9.07628 24.0315C9.19965 24.3295 9.38054 24.6003 9.60862 24.8284C9.8367 25.0565 10.1075 25.2374 10.4055 25.3607C10.856 25.5473 11.4279 25.5473 12.5718 25.5473C13.7157 25.5473 14.2877 25.5473 14.7381 25.3607C15.0361 25.2374 15.3069 25.0565 15.535 24.8284C15.7631 24.6003 15.944 24.3295 16.0673 24.0315C16.1803 23.7578 16.2257 23.4387 16.2429 22.9723C16.2674 22.2874 16.6197 21.6541 17.2125 21.3116C17.5059 21.1471 17.8364 21.0599 18.1729 21.0582C18.5093 21.0565 18.8406 21.1403 19.1358 21.3018C19.5482 21.5203 19.8464 21.6406 20.141 21.6799C20.4606 21.722 20.7855 21.7008 21.097 21.6174C21.4084 21.534 21.7004 21.3901 21.9562 21.1938C22.3429 20.8968 22.6288 20.4009 23.2008 19.4105C23.7727 18.42 24.0599 17.9254 24.1225 17.4405C24.1647 17.1209 24.1435 16.796 24.0601 16.4846C23.9767 16.1731 23.8328 15.8811 23.6365 15.6253C23.4549 15.3896 23.2008 15.192 22.8068 14.9441C22.5193 14.7693 22.2809 14.5243 22.1141 14.2321C21.9473 13.9399 21.8575 13.6101 21.8531 13.2736C21.8531 12.5888 22.2263 11.9677 22.8068 11.6044C23.2008 11.3553 23.4561 11.1577 23.6365 10.922C23.8328 10.6662 23.9767 10.3742 24.0601 10.0627C24.1435 9.75126 24.1647 9.42641 24.1225 9.10674C24.0587 8.62316 23.7727 8.1273 23.202 7.13682C22.6288 6.14634 22.3429 5.65171 21.9562 5.35346C21.7004 5.15719 21.4084 5.01325 21.097 4.92986C20.7855 4.84646 20.4606 4.82525 20.141 4.86742C19.8464 4.9067 19.5482 5.02698 19.1345 5.24545C18.8396 5.40675 18.5084 5.49046 18.1722 5.48875C17.836 5.48703 17.5058 5.39993 17.2125 5.23563C16.9234 5.06369 16.6827 4.82108 16.5131 4.5306C16.3435 4.24012 16.2505 3.9113 16.2429 3.57501C16.2257 3.10861 16.1815 2.7895 16.0673 2.51579C15.944 2.21777 15.7631 1.94697 15.535 1.7189C15.3069 1.49082 15.0361 1.30993 14.7381 1.18656Z" stroke="#F9F8FD" stroke-width="1.84105"/>
</svg>
