<svg width="22" height="29" viewBox="0 0 22 29" fill="none" xmlns="http://www.w3.org/2000/svg">
<path d="M21.0656 12.7563C20.4589 11.3798 19.577 10.1442 18.475 9.12697L17.5656 8.28578C17.5347 8.258 17.4976 8.23829 17.4574 8.22837C17.4172 8.21846 17.3752 8.21864 17.3351 8.2289C17.295 8.23917 17.258 8.2592 17.2273 8.28725C17.1967 8.31529 17.1734 8.35049 17.1594 8.38975L16.7531 9.56489C16.5 10.3021 16.0344 11.0551 15.375 11.7954C15.3312 11.8427 15.2812 11.8553 15.2469 11.8585C15.2125 11.8616 15.1594 11.8553 15.1125 11.8112C15.0687 11.7734 15.0469 11.7167 15.05 11.66C15.1656 9.76337 14.6031 7.62418 13.3719 5.29596C12.3531 3.36155 10.9375 1.85246 9.16874 0.80019L7.87812 0.0346182C7.70937 -0.0661979 7.49374 0.066123 7.50312 0.264605L7.57187 1.77685C7.61874 2.81021 7.49999 3.72386 7.21874 4.48313C6.87499 5.41252 6.38124 6.27576 5.74999 7.05078C5.31069 7.5894 4.81278 8.07659 4.26562 8.50317C2.94783 9.52445 1.87629 10.8331 1.13125 12.331C0.388043 13.842 0.000906752 15.5057 0 17.1922C0 18.6793 0.290625 20.1191 0.865624 21.4769C1.42083 22.7843 2.22206 23.9708 3.225 24.9708C4.2375 25.979 5.41249 26.7729 6.72187 27.3243C8.07812 27.8977 9.51562 28.1875 11 28.1875C12.4844 28.1875 13.9219 27.8977 15.2781 27.3274C16.5843 26.7793 17.772 25.9799 18.775 24.974C19.7875 23.9658 20.5812 22.7875 21.1344 21.4801C21.7085 20.1259 22.003 18.6681 22 17.1954C22 15.658 21.6875 14.1646 21.0656 12.7563ZM17.2812 23.446C15.6031 25.1221 13.375 26.042 11 26.042C8.62499 26.042 6.39687 25.1221 4.71875 23.446C3.04687 21.7731 2.125 19.5551 2.125 17.1954C2.125 15.8249 2.43125 14.5112 3.03437 13.2888C3.62187 12.0947 4.49687 11.0267 5.55937 10.2044C6.23699 9.68206 6.85159 9.08148 7.39062 8.41495C8.17187 7.45405 8.78437 6.38288 9.20937 5.23295C9.3837 4.7586 9.51037 4.26781 9.58749 3.76796C10.3406 4.46737 10.9719 5.31171 11.5 6.30096C12.5437 8.27318 13.025 10.028 12.9312 11.5213C12.9088 11.8731 12.9658 12.2253 13.0979 12.5516C13.23 12.8779 13.4337 13.1698 13.6937 13.4053C13.9191 13.6106 14.1827 13.7686 14.4692 13.8703C14.7556 13.972 15.0593 14.0153 15.3625 13.9976C15.9781 13.9661 16.5437 13.692 16.9562 13.2289C17.3719 12.7595 17.7312 12.2806 18.0312 11.7923C18.4687 12.3562 18.8344 12.9706 19.125 13.6322C19.6219 14.7601 19.875 15.9604 19.875 17.1954C19.875 19.5551 18.9531 21.7762 17.2812 23.446Z" fill="#F9F8FD"/>
</svg>
